<svg version="1.1" xmlns="http://www.w3.org/2000/svg" viewBox="0 0 250 250"><desc>Created with Snap</desc><defs><linearGradient x1="-490.2" y1="-1085.2" x2="6480.75863374585" y2="-1085.2" gradientUnits="userSpaceOnUse" id="linearGradientSkpz88xlx2c9"><stop offset="0%" stop-color="#081c4f"></stop><stop offset="100%" stop-color="#157c79"></stop></linearGradient></defs><g transform="matrix(0.0359,0,0,0.0359,17.5801,110.5167)"><rect x="-490.2" y="-1085.2" width="6970.9586337458495" height="2978.1" fill="url('#linearGradientSkpz88xlx2c9')"></rect><g transform="matrix(10.9919,0,0,10.9919,3415.9329,-1059.4026)"><path d="M58.88 90.88c2.125 0 3.84-1.715 3.84-3.84s-1.715-3.84-3.84-3.84h-2.56c-2.125 0-3.84 1.715-3.84 3.84s1.715 3.84 3.84 3.84h2.56z" fill="#ffffff" style=""></path><path d="M35.84 90.88c2.125 0 3.84-1.715 3.84-3.84s-1.715-3.84-3.84-3.84h-2.56c-2.125 0-3.84 1.715-3.84 3.84s1.715 3.84 3.84 3.84h2.56z" fill="#ffffff" style=""></path><path d="M81.92 90.88c2.125 0 3.84-1.715 3.84-3.84s-1.715-3.84-3.84-3.84h-2.56c-2.125 0-3.84 1.715-3.84 3.84s1.715 3.84 3.84 3.84h2.56z" fill="#ffffff" style=""></path><path d="M10.24 90.88h2.56c2.125 0 3.84-1.715 3.84-3.84s-1.715-3.84-3.84-3.84h-2.56c-2.125 0-3.84 1.715-3.84 3.84s1.715 3.84 3.84 3.84z" fill="#ffffff" style=""></path><path d="M112.64 90.88h2.56c2.125 0 3.84-1.715 3.84-3.84s-1.715-3.84-3.84-3.84h-2.56c-2.125 0-3.84 1.715-3.84 3.84s1.715 3.84 3.84 3.84z" fill="#ffffff" style=""></path><path d="M135.68 90.88h2.56c2.125 0 3.84-1.715 3.84-3.84s-1.715-3.84-3.84-3.84h-2.56c-2.125 0-3.84 1.715-3.84 3.84s1.715 3.84 3.84 3.84z" fill="#ffffff" style=""></path><path d="M203.52 87.040c0-2.125-1.715-3.84-3.84-3.84h-2.56c-2.125 0-3.84 1.715-3.84 3.84s1.715 3.84 3.84 3.84h2.56c2.125 0 3.84-1.715 3.84-3.84z" fill="#ffffff" style=""></path><path d="M174.080 83.2c-2.125 0-3.84 1.715-3.84 3.84s1.715 3.84 3.84 3.84h2.56c2.125 0 3.84-1.715 3.84-3.84s-1.715-3.84-3.84-3.84h-2.56z" fill="#ffffff" style=""></path><path d="M230.4 90.88h2.56c2.125 0 3.84-1.715 3.84-3.84s-1.715-3.84-3.84-3.84h-2.56c-2.125 0-3.84 1.715-3.84 3.84s1.715 3.84 3.84 3.84z" fill="#ffffff" style=""></path><path d="M245.76 168.96h-143.36v-16.025c7.194-1.843 12.826-7.501 14.695-14.695h21.145c14.106-0.025 25.575-11.495 25.6-25.6v-46.745c7.194-1.843 12.826-7.501 14.695-14.694h16.025c4.224 0 8.038 1.715 10.855 4.505 2.791 2.816 4.506 6.63 4.506 10.854v46.746c-8.832 2.278-15.36 10.266-15.36 19.815 0 11.315 9.165 20.48 20.48 20.48s20.48-9.165 20.48-20.48c0-9.549-6.528-17.536-15.36-19.814v-46.746c-0.025-14.105-11.494-25.575-25.6-25.6h-16.025c-2.279-8.832-10.266-15.36-19.815-15.36-11.315 0-20.48 9.165-20.48 20.48 0 9.549 6.528 17.536 15.36 19.814v46.745c0 4.224-1.715 8.038-4.506 10.855-2.816 2.79-6.631 4.506-10.855 4.506h-21.145c-1.843-7.194-7.501-12.826-14.695-14.695v-46.745c0-6.861-2.432-13.159-6.528-17.843-4.070-4.659-9.959-7.757-16.512-7.757-4.941 0-9.421 0-12.647 0-0.281 0-0.537 0-0.819 0-2.279-8.832-10.266-15.36-19.814-15.36-11.315 0-20.48 9.165-20.48 20.48s9.165 20.48 20.48 20.48c9.549 0 17.536-6.528 19.814-15.36 0.256 0 0.537 0 0.819 0 3.251 0 7.731 0 12.647 0 3.302 0 6.374 1.511 8.806 4.275 2.406 2.739 3.993 6.681 3.993 11.085v46.746c-8.832 2.278-15.36 10.266-15.36 19.815s6.528 17.536 15.36 19.815v16.025h-81.92c-2.816 0-5.12 2.304-5.12 5.12s2.304 5.12 5.12 5.12h81.92v21.145c-8.832 2.279-15.36 10.266-15.36 19.815 0 11.315 9.165 20.48 20.48 20.48s20.48-9.165 20.48-20.48c0-9.549-6.528-17.536-15.36-19.815v-21.145h143.36c2.816 0 5.12-2.304 5.12-5.12s-2.304-5.12-5.12-5.12zM225.28 133.12c0 2.841-1.126 5.376-2.995 7.245s-4.403 2.995-7.245 2.995c-2.841 0-5.376-1.126-7.245-2.995s-2.995-4.403-2.995-7.245c0-2.841 1.126-5.376 2.995-7.245s4.403-2.995 7.245-2.995c2.841 0 5.376 1.127 7.245 2.995s2.995 4.403 2.995 7.245zM148.48 46.080c0-2.841 1.126-5.376 2.995-7.245s4.403-2.995 7.245-2.995c2.841 0 5.376 1.127 7.245 2.995s2.995 4.403 2.995 7.245c0 2.841-1.126 5.376-2.995 7.245s-4.403 2.995-7.245 2.995c-2.841 0-5.376-1.127-7.245-2.995s-2.995-4.403-2.995-7.245zM53.325 53.325c-1.869 1.869-4.403 2.995-7.245 2.995s-5.376-1.127-7.245-2.995c-1.869-1.869-2.995-4.403-2.995-7.245s1.127-5.376 2.995-7.245c1.869-1.869 4.403-2.995 7.245-2.995s5.376 1.127 7.245 2.995c1.869 1.869 2.995 4.403 2.995 7.245s-1.127 5.376-2.995 7.245zM87.040 133.12c0-2.841 1.127-5.376 2.995-7.245s4.403-2.995 7.245-2.995c2.841 0 5.376 1.127 7.245 2.995s2.995 4.403 2.995 7.245c0 2.841-1.127 5.376-2.995 7.245s-4.403 2.995-7.245 2.995c-2.841 0-5.376-1.126-7.245-2.995s-2.995-4.403-2.995-7.245zM107.52 220.16c0 2.841-1.127 5.376-2.995 7.245s-4.403 2.995-7.245 2.995c-2.841 0-5.376-1.126-7.245-2.995s-2.995-4.403-2.995-7.245c0-2.841 1.127-5.376 2.995-7.245s4.403-2.995 7.245-2.995c2.841 0 5.376 1.126 7.245 2.995s2.995 4.403 2.995 7.245z" fill="#ffffff" style=""></path><desc>Created with Snap</desc><defs></defs></g><g><g transform="matrix(0.5,0,0,-0.5,0,0)"><path d="M434 1391L434 848Q471 901 518 943Q537 961 560 978Q584 995 610 1008Q637 1022 666 1030Q696 1038 727 1038Q794 1038 847 1012Q900 986 936 925Q972 864 991 763Q1010 663 1010 514Q1010 369 984 262Q958 155 916 80Q874 5 821 -43Q768 -90 714 -117Q660 -144 610 -155Q560 -165 524 -166L514 -125Q559 -114 594 -84Q629 -54 653 14Q677 83 689 199Q702 315 702 498Q702 624 690 699Q679 775 660 814Q642 854 618 866Q595 879 571 879Q542 879 520 863Q498 848 481 828Q465 808 453 788Q442 768 434 758L434 90Q434 77 430 58Q426 40 410 23Q395 7 364 -5Q334 -16 281 -16Q228 -16 197 -4Q166 9 150 26Q135 43 131 61Q127 79 127 90L127 1380Q127 1409 113 1430Q100 1452 68 1452Q51 1452 38 1446Q26 1441 12 1430L-8 1454Q15 1473 43 1491Q71 1510 104 1524Q138 1538 176 1547Q214 1556 256 1556Q321 1556 357 1538Q393 1521 410 1495Q427 1470 430 1441Q434 1413 434 1391ZM1870 692L1475 459Q1475 427 1484 389Q1494 352 1512 314Q1530 276 1556 241Q1583 207 1617 180Q1652 153 1694 137Q1736 121 1786 121Q1821 121 1851 129Q1881 137 1907 151Q1933 165 1957 183Q1981 202 2005 223L2030 199Q2007 168 1971 131Q1935 94 1884 61Q1833 29 1765 7Q1697 -14 1610 -14Q1523 -14 1440 17Q1358 49 1294 112Q1230 175 1191 269Q1153 363 1153 489Q1153 580 1176 656Q1199 732 1238 793Q1278 854 1330 900Q1383 946 1441 976Q1499 1007 1559 1022Q1620 1038 1676 1038Q1750 1038 1805 1022Q1860 1006 1896 979Q1933 952 1951 916Q1969 881 1969 842Q1969 795 1942 757Q1915 720 1870 692ZM1465 541L1676 662Q1689 670 1697 677Q1706 685 1711 695Q1716 706 1718 721Q1721 737 1721 760Q1721 785 1715 815Q1710 846 1697 873Q1684 900 1664 918Q1644 936 1616 936Q1580 936 1554 914Q1529 893 1512 859Q1496 825 1486 781Q1477 738 1472 694Q1467 650 1466 609Q1465 569 1465 541ZM2615 274L2615 518Q2615 543 2599 556Q2583 569 2558 569Q2523 569 2491 553Q2460 537 2436 506Q2412 475 2398 429Q2384 384 2384 324Q2384 266 2392 228Q2401 190 2415 167Q2430 145 2449 136Q2468 127 2489 127Q2515 127 2538 140Q2561 154 2578 175Q2595 196 2605 222Q2615 248 2615 274ZM2456 956Q2422 956 2393 948Q2364 940 2343 928Q2322 916 2310 901Q2298 887 2298 874Q2298 859 2313 852Q2329 846 2348 837Q2367 829 2382 813Q2398 798 2398 766Q2398 745 2389 727Q2381 710 2366 696Q2352 683 2332 675Q2313 668 2292 668Q2236 668 2201 706Q2167 744 2167 807Q2167 868 2199 911Q2231 955 2282 983Q2334 1011 2399 1024Q2464 1038 2529 1038Q2607 1038 2678 1021Q2749 1004 2803 967Q2858 930 2890 873Q2923 816 2923 735L2923 170Q2923 161 2924 150Q2925 139 2929 130Q2933 121 2941 115Q2949 109 2964 109Q2982 109 2997 122Q3013 136 3025 150L3050 129Q3035 108 3014 83Q2993 58 2963 36Q2933 14 2893 -1Q2853 -16 2802 -16Q2739 -16 2690 21Q2641 59 2626 137Q2594 94 2559 65Q2525 36 2489 18Q2453 0 2416 -8Q2380 -16 2343 -16Q2295 -16 2250 -1Q2205 14 2169 46Q2134 79 2112 131Q2091 183 2091 258Q2091 349 2127 407Q2163 465 2221 504Q2280 544 2354 572Q2429 600 2507 631Q2565 654 2591 699Q2618 745 2618 793Q2618 867 2574 911Q2531 956 2456 956ZM3494 1391L3494 88Q3494 75 3489 57Q3485 39 3468 23Q3452 7 3420 -5Q3389 -16 3336 -16Q3283 -16 3253 -4Q3223 9 3208 26Q3194 43 3190 61Q3187 79 3187 90L3187 1380Q3187 1409 3173 1430Q3160 1452 3128 1452Q3111 1452 3098 1446Q3086 1441 3072 1430L3052 1454Q3075 1473 3103 1491Q3131 1510 3164 1524Q3198 1538 3236 1547Q3274 1556 3316 1556Q3381 1556 3417 1538Q3453 1521 3470 1495Q3487 1470 3490 1441Q3494 1413 3494 1391ZM4065 872L4065 90Q4065 77 4060 58Q4056 40 4039 23Q4023 7 3992 -5Q3961 -16 3908 -16Q3855 -16 3825 -4Q3795 9 3780 26Q3765 43 3761 61Q3758 79 3758 90L3758 862Q3758 891 3744 912Q3731 934 3699 934Q3682 934 3670 928Q3658 922 3644 911L3623 936Q3646 955 3674 973Q3703 992 3736 1006Q3769 1020 3807 1029Q3845 1038 3887 1038Q3952 1038 3988 1020Q4024 1003 4041 977Q4058 952 4061 923Q4065 894 4065 872ZM3727 1266Q3727 1294 3739 1319Q3752 1345 3774 1364Q3797 1383 3826 1394Q3856 1405 3891 1405Q3925 1405 3954 1394Q3984 1383 4006 1364Q4028 1345 4040 1319Q4053 1294 4053 1266Q4053 1237 4040 1212Q4028 1187 4006 1168Q3984 1150 3954 1139Q3925 1128 3891 1128Q3856 1128 3826 1139Q3797 1150 3774 1168Q3752 1187 3739 1212Q3727 1237 3727 1266ZM4905 498Q4905 624 4893 699Q4882 775 4863 814Q4844 854 4821 866Q4798 879 4774 879Q4745 879 4722 863Q4700 848 4683 828Q4667 808 4655 788Q4644 768 4636 758L4636 90Q4636 77 4632 58Q4628 40 4612 23Q4597 7 4566 -5Q4536 -16 4483 -16Q4430 -16 4399 -4Q4369 9 4353 26Q4337 43 4333 61Q4329 79 4329 90L4329 862Q4329 891 4315 912Q4302 934 4270 934Q4253 934 4241 928Q4229 922 4215 911L4194 936Q4217 955 4245 973Q4274 992 4307 1006Q4340 1020 4378 1029Q4416 1038 4458 1038Q4523 1038 4559 1016Q4595 995 4612 965Q4629 935 4632 902Q4636 870 4636 848Q4673 901 4720 943Q4739 961 4762 978Q4786 995 4812 1008Q4839 1022 4868 1030Q4898 1038 4929 1038Q4997 1038 5049 1012Q5102 986 5138 925Q5174 864 5193 763Q5212 663 5212 514Q5212 369 5186 262Q5160 155 5118 80Q5076 5 5023 -43Q4970 -90 4916 -117Q4862 -144 4812 -155Q4763 -165 4727 -166L4716 -125Q4746 -118 4771 -103Q4797 -88 4818 -59Q4839 -30 4855 14Q4871 59 4882 126Q4894 193 4899 284Q4905 376 4905 498ZM5376 629Q5376 731 5411 807Q5447 884 5507 935Q5567 987 5646 1012Q5725 1038 5812 1038Q5899 1038 5977 1015Q6055 992 6115 944Q6134 973 6146 1005Q6158 1037 6158 1069Q6158 1111 6135 1136Q6113 1161 6078 1161L6078 1190Q6100 1197 6117 1202Q6134 1208 6148 1211Q6162 1214 6176 1215Q6190 1217 6207 1217Q6254 1217 6279 1188Q6304 1159 6304 1108Q6304 1078 6290 1048Q6276 1019 6255 992Q6234 965 6208 941Q6183 917 6160 899Q6202 851 6225 787Q6248 723 6248 641Q6248 538 6212 459Q6177 380 6117 326Q6057 272 5978 244Q5899 217 5812 217Q5761 217 5712 226Q5663 235 5620 252Q5604 240 5592 222Q5581 204 5581 182Q5581 145 5613 127Q5645 109 5698 101Q5751 93 5818 91Q5885 89 5955 84Q6026 80 6093 67Q6160 55 6213 26Q6266 -2 6298 -51Q6330 -100 6330 -178Q6330 -235 6306 -281Q6282 -326 6241 -361Q6201 -395 6147 -420Q6094 -444 6034 -460Q5975 -475 5913 -482Q5852 -489 5796 -489Q5694 -489 5612 -479Q5531 -468 5474 -446Q5417 -424 5386 -389Q5355 -354 5355 -305Q5355 -270 5371 -241Q5387 -211 5413 -187Q5440 -162 5473 -143Q5506 -123 5540 -106Q5490 -85 5456 -43Q5423 0 5423 70Q5423 107 5436 138Q5449 170 5469 196Q5490 223 5514 244Q5539 266 5562 281Q5521 305 5486 339Q5452 374 5427 417Q5403 461 5389 514Q5376 567 5376 629ZM5947 637Q5947 695 5941 750Q5935 805 5920 848Q5905 891 5879 917Q5853 944 5812 944Q5771 944 5745 916Q5719 889 5704 844Q5689 800 5683 743Q5677 687 5677 629Q5677 570 5683 513Q5689 456 5704 411Q5719 366 5745 338Q5771 311 5812 311Q5853 311 5879 340Q5905 369 5920 415Q5935 462 5941 520Q5947 578 5947 637ZM6099 -258Q6099 -226 6074 -206Q6049 -185 6008 -173Q5968 -160 5916 -154Q5865 -147 5812 -144Q5759 -140 5709 -137Q5659 -134 5622 -129Q5601 -144 5581 -162Q5562 -179 5547 -199Q5533 -218 5524 -240Q5515 -261 5515 -283Q5515 -321 5537 -347Q5559 -372 5596 -387Q5634 -402 5683 -408Q5733 -414 5788 -414Q5861 -414 5919 -402Q5977 -389 6017 -368Q6057 -346 6078 -318Q6099 -290 6099 -258Z" fill="#ffffff" style=""></path></g></g><g transform="matrix(1,0,0,1,-184,1329.7)"><g transform="matrix(0.5,0,0,-0.5,0,0)"><path d="M137 -406L137 862Q137 891 123 912Q110 934 78 934Q61 934 49 928Q37 922 23 911L2 936Q25 955 53 973Q82 992 115 1006Q148 1020 186 1029Q224 1038 266 1038Q311 1038 343 1024Q375 1010 396 990Q418 971 429 949Q440 928 442 913Q462 941 489 964Q517 987 549 1003Q582 1020 618 1029Q655 1038 694 1038Q774 1038 839 1005Q904 972 950 907Q997 842 1022 746Q1047 650 1047 524Q1047 378 1016 275Q986 173 936 108Q887 43 823 13Q760 -16 694 -16Q639 -16 597 -5Q556 6 526 22Q496 38 476 54Q456 71 444 82L444 -406Q444 -419 440 -437Q436 -455 420 -472Q405 -488 374 -500Q344 -512 291 -512Q238 -512 207 -500Q177 -487 161 -470Q145 -452 141 -435Q137 -417 137 -406ZM444 782L444 225Q444 217 451 197Q458 177 473 156Q488 135 511 118Q535 102 569 102Q613 102 644 135Q675 169 695 226Q715 284 724 360Q733 437 733 524Q733 631 721 705Q710 779 688 824Q666 870 635 890Q605 911 567 911Q545 911 523 898Q501 886 483 867Q466 849 455 826Q444 803 444 782ZM1546 1391L1546 848Q1583 901 1630 943Q1649 961 1672 978Q1696 995 1722 1008Q1749 1022 1778 1030Q1808 1038 1839 1038Q1906 1038 1959 1012Q2012 986 2048 925Q2084 864 2103 763Q2122 663 2122 514Q2122 369 2096 262Q2070 155 2028 80Q1986 5 1933 -43Q1880 -90 1826 -117Q1772 -144 1722 -155Q1672 -165 1636 -166L1626 -125Q1671 -114 1706 -84Q1741 -54 1765 14Q1789 83 1801 199Q1814 315 1814 498Q1814 624 1802 699Q1791 775 1772 814Q1754 854 1730 866Q1707 879 1683 879Q1654 879 1632 863Q1610 848 1593 828Q1577 808 1565 788Q1554 768 1546 758L1546 90Q1546 77 1542 58Q1538 40 1522 23Q1507 7 1476 -5Q1446 -16 1393 -16Q1340 -16 1309 -4Q1278 9 1262 26Q1247 43 1243 61Q1239 79 1239 90L1239 1380Q1239 1409 1225 1430Q1212 1452 1180 1452Q1163 1452 1150 1446Q1138 1441 1124 1430L1104 1454Q1127 1473 1155 1491Q1183 1510 1216 1524Q1250 1538 1288 1547Q1326 1556 1368 1556Q1433 1556 1469 1538Q1505 1521 1522 1495Q1539 1470 1542 1441Q1546 1413 1546 1391ZM2779 274L2779 518Q2779 543 2763 556Q2747 569 2722 569Q2687 569 2655 553Q2624 537 2600 506Q2576 475 2562 429Q2548 384 2548 324Q2548 266 2556 228Q2565 190 2579 167Q2594 145 2613 136Q2632 127 2653 127Q2679 127 2702 140Q2725 154 2742 175Q2759 196 2769 222Q2779 248 2779 274ZM2620 956Q2586 956 2557 948Q2528 940 2507 928Q2486 916 2474 901Q2462 887 2462 874Q2462 859 2477 852Q2493 846 2512 837Q2531 829 2546 813Q2562 798 2562 766Q2562 745 2553 727Q2545 710 2530 696Q2516 683 2496 675Q2477 668 2456 668Q2400 668 2365 706Q2331 744 2331 807Q2331 868 2363 911Q2395 955 2446 983Q2498 1011 2563 1024Q2628 1038 2693 1038Q2771 1038 2842 1021Q2913 1004 2967 967Q3022 930 3054 873Q3087 816 3087 735L3087 170Q3087 161 3088 150Q3089 139 3093 130Q3097 121 3105 115Q3113 109 3128 109Q3146 109 3161 122Q3177 136 3189 150L3214 129Q3199 108 3178 83Q3157 58 3127 36Q3097 14 3057 -1Q3017 -16 2966 -16Q2903 -16 2854 21Q2805 59 2790 137Q2758 94 2723 65Q2689 36 2653 18Q2617 0 2580 -8Q2544 -16 2507 -16Q2459 -16 2414 -1Q2369 14 2333 46Q2298 79 2276 131Q2255 183 2255 258Q2255 349 2291 407Q2327 465 2385 504Q2444 544 2518 572Q2593 600 2671 631Q2729 654 2755 699Q2782 745 2782 793Q2782 867 2738 911Q2695 956 2620 956ZM3668 827Q3706 885 3749 932Q3767 952 3788 971Q3809 990 3831 1005Q3854 1020 3878 1029Q3902 1038 3926 1038Q3977 1038 4006 1007Q4035 977 4035 922Q4035 888 4029 856Q4024 825 4008 780L3980 780Q3974 811 3952 831Q3930 852 3888 852Q3857 852 3827 840Q3797 829 3768 812Q3740 795 3714 775Q3689 755 3668 737L3668 88Q3668 75 3664 57Q3660 39 3644 23Q3629 7 3598 -5Q3568 -16 3515 -16Q3462 -16 3431 -4Q3401 9 3385 26Q3369 43 3365 61Q3361 79 3361 90L3361 862Q3361 891 3347 912Q3334 934 3302 934Q3285 934 3273 928Q3261 922 3247 911L3226 936Q3249 955 3277 973Q3306 992 3339 1006Q3372 1020 3410 1029Q3448 1038 3490 1038Q3533 1038 3563 1026Q3594 1015 3613 996Q3633 978 3644 955Q3655 932 3660 908Q3666 885 3667 863Q3668 842 3668 827ZM5016 758L5016 88Q5016 75 5012 57Q5008 39 4992 23Q4977 7 4946 -5Q4915 -16 4862 -16Q4809 -16 4778 -4Q4748 9 4732 26Q4717 43 4713 61Q4709 79 4709 90L4709 797Q4709 811 4705 825Q4701 840 4693 852Q4685 864 4673 871Q4661 879 4645 879Q4618 879 4592 863Q4566 848 4543 828Q4521 808 4504 788Q4488 768 4481 758L4481 88Q4481 75 4477 57Q4473 39 4457 23Q4442 7 4411 -5Q4381 -16 4328 -16Q4275 -16 4244 -4Q4214 9 4198 26Q4182 43 4178 61Q4174 79 4174 90L4174 862Q4174 891 4160 912Q4147 934 4115 934Q4098 934 4086 928Q4074 922 4060 911L4039 936Q4062 955 4090 973Q4119 992 4152 1006Q4185 1020 4223 1029Q4261 1038 4303 1038Q4368 1038 4404 1016Q4440 995 4457 965Q4474 935 4477 902Q4481 870 4481 848Q4528 901 4582 943Q4604 961 4630 978Q4657 995 4685 1008Q4713 1022 4743 1030Q4773 1038 4803 1038Q4861 1038 4902 1017Q4943 996 4968 966Q4993 937 5004 904Q5016 872 5016 848Q5064 901 5117 943Q5139 961 5165 978Q5191 995 5219 1008Q5248 1022 5277 1030Q5307 1038 5337 1038Q5395 1038 5436 1016Q5477 995 5502 960Q5527 925 5538 881Q5550 837 5550 793L5550 174Q5550 165 5551 154Q5552 144 5556 134Q5560 125 5568 119Q5577 113 5591 113Q5610 113 5625 126Q5640 140 5653 154L5677 133Q5663 112 5640 86Q5617 61 5585 38Q5554 15 5512 -1Q5471 -16 5419 -16Q5375 -16 5342 -5Q5310 7 5287 26Q5265 46 5254 72Q5243 99 5243 129L5243 797Q5243 811 5239 825Q5235 840 5227 852Q5220 864 5208 871Q5196 879 5180 879Q5153 879 5126 863Q5100 848 5077 828Q5055 808 5039 788Q5023 768 5016 758ZM6263 274L6263 518Q6263 543 6247 556Q6231 569 6206 569Q6171 569 6139 553Q6108 537 6084 506Q6060 475 6046 429Q6032 384 6032 324Q6032 266 6040 228Q6049 190 6063 167Q6078 145 6097 136Q6116 127 6137 127Q6163 127 6186 140Q6209 154 6226 175Q6243 196 6253 222Q6263 248 6263 274ZM6104 956Q6070 956 6041 948Q6012 940 5991 928Q5970 916 5958 901Q5946 887 5946 874Q5946 859 5961 852Q5977 846 5996 837Q6015 829 6030 813Q6046 798 6046 766Q6046 745 6037 727Q6029 710 6014 696Q6000 683 5980 675Q5961 668 5940 668Q5884 668 5849 706Q5815 744 5815 807Q5815 868 5847 911Q5879 955 5930 983Q5982 1011 6047 1024Q6112 1038 6177 1038Q6255 1038 6326 1021Q6397 1004 6451 967Q6506 930 6538 873Q6571 816 6571 735L6571 170Q6571 161 6572 150Q6573 139 6577 130Q6581 121 6589 115Q6597 109 6612 109Q6630 109 6645 122Q6661 136 6673 150L6698 129Q6683 108 6662 83Q6641 58 6611 36Q6581 14 6541 -1Q6501 -16 6450 -16Q6387 -16 6338 21Q6289 59 6274 137Q6242 94 6207 65Q6173 36 6137 18Q6101 0 6064 -8Q6028 -16 5991 -16Q5943 -16 5898 -1Q5853 14 5817 46Q5782 79 5760 131Q5739 183 5739 258Q5739 349 5775 407Q5811 465 5869 504Q5928 544 6002 572Q6077 600 6155 631Q6213 654 6239 699Q6266 745 6266 793Q6266 867 6222 911Q6179 956 6104 956Z" fill="#ffffff" style=""></path></g></g></g></svg>